<svg width="400" height="300" xmlns="http://www.w3.org/2000/svg">
  <defs>
    <linearGradient id="forestGradient" x1="0%" y1="0%" x2="0%" y2="100%">
      <stop offset="0%" style="stop-color:#228B22;stop-opacity:1" />
      <stop offset="100%" style="stop-color:#006400;stop-opacity:1" />
    </linearGradient>
  </defs>
  
  <!-- Forest background -->
  <rect width="400" height="300" fill="url(#forestGradient)"/>
  
  <!-- Tree trunks -->
  <rect x="50" y="100" width="20" height="200" fill="#8B4513"/>
  <rect x="150" y="80" width="25" height="220" fill="#A0522D"/>
  <rect x="280" y="120" width="18" height="180" fill="#8B4513"/>
  <rect x="350" y="90" width="22" height="210" fill="#A0522D"/>
  
  <!-- Tree canopies -->
  <ellipse cx="60" cy="90" rx="35" ry="40" fill="#228B22"/>
  <ellipse cx="162" cy="70" rx="45" ry="50" fill="#32CD32"/>
  <ellipse cx="289" cy="110" rx="30" ry="35" fill="#228B22"/>
  <ellipse cx="361" cy="80" rx="40" ry="45" fill="#32CD32"/>
  
  <!-- Sunlight rays -->
  <polygon points="200,0 210,0 250,150 240,150" fill="#FFD700" opacity="0.3"/>
  <polygon points="220,0 230,0 270,150 260,150" fill="#FFD700" opacity="0.2"/>
  <polygon points="240,0 250,0 290,150 280,150" fill="#FFD700" opacity="0.3"/>
  
  <!-- Forest floor -->
  <ellipse cx="100" cy="280" rx="30" ry="8" fill="#8B4513" opacity="0.5"/>
  <ellipse cx="200" cy="285" rx="25" ry="6" fill="#8B4513" opacity="0.5"/>
  <ellipse cx="320" cy="275" rx="35" ry="10" fill="#8B4513" opacity="0.5"/>
  
  <!-- Small plants -->
  <rect x="120" y="260" width="3" height="15" fill="#228B22"/>
  <ellipse cx="121" cy="255" rx="8" ry="5" fill="#32CD32"/>
  
  <rect x="250" y="270" width="2" height="10" fill="#228B22"/>
  <ellipse cx="251" cy="267" rx="6" ry="4" fill="#32CD32"/>
  
  <!-- Mushrooms -->
  <rect x="180" y="275" width="4" height="8" fill="#F5DEB3"/>
  <ellipse cx="182" cy="272" rx="6" ry="3" fill="#DC143C"/>
  <circle cx="180" cy="272" r="1" fill="white"/>
  <circle cx="184" cy="271" r="1" fill="white"/>
  
  <!-- Film frame border -->
  <rect x="0" y="0" width="400" height="300" fill="none" stroke="#333" stroke-width="8"/>
  
  <!-- Film sprocket holes -->
  <rect x="5" y="20" width="8" height="6" fill="#333"/>
  <rect x="5" y="40" width="8" height="6" fill="#333"/>
  <rect x="5" y="60" width="8" height="6" fill="#333"/>
  <rect x="5" y="80" width="8" height="6" fill="#333"/>
  <rect x="5" y="100" width="8" height="6" fill="#333"/>
  
  <rect x="387" y="20" width="8" height="6" fill="#333"/>
  <rect x="387" y="40" width="8" height="6" fill="#333"/>
  <rect x="387" y="60" width="8" height="6" fill="#333"/>
  <rect x="387" y="80" width="8" height="6" fill="#333"/>
  <rect x="387" y="100" width="8" height="6" fill="#333"/>
  
  <!-- Photo info -->
  <text x="20" y="280" font-family="Arial, sans-serif" font-size="12" fill="white">Roll 001 - Photo 03</text>
  <text x="20" y="295" font-family="Arial, sans-serif" font-size="10" fill="#ccc">Kodak Portra 400</text>
</svg>