<svg width="400" height="300" xmlns="http://www.w3.org/2000/svg">
  <defs>
    <linearGradient id="skyGradient" x1="0%" y1="0%" x2="0%" y2="100%">
      <stop offset="0%" style="stop-color:#87CEEB;stop-opacity:1" />
      <stop offset="100%" style="stop-color:#E0F6FF;stop-opacity:1" />
    </linearGradient>
  </defs>
  
  <!-- Sky background -->
  <rect width="400" height="200" fill="url(#skyGradient)"/>
  
  <!-- Ground -->
  <rect x="0" y="200" width="400" height="100" fill="#90EE90"/>
  
  <!-- Sun -->
  <circle cx="320" cy="80" r="30" fill="#FFD700"/>
  
  <!-- Clouds -->
  <ellipse cx="100" cy="60" rx="25" ry="15" fill="white" opacity="0.8"/>
  <ellipse cx="120" cy="55" rx="30" ry="18" fill="white" opacity="0.8"/>
  <ellipse cx="140" cy="60" rx="20" ry="12" fill="white" opacity="0.8"/>
  
  <!-- Tree -->
  <rect x="50" y="150" width="15" height="50" fill="#8B4513"/>
  <circle cx="57" cy="140" r="25" fill="#228B22"/>
  
  <!-- House -->
  <rect x="250" y="160" width="80" height="40" fill="#DEB887"/>
  <polygon points="250,160 290,130 330,160" fill="#8B4513"/>
  <rect x="270" y="175" width="15" height="25" fill="#654321"/>
  <rect x="300" y="170" width="12" height="12" fill="#87CEEB"/>
  
  <!-- Film frame border -->
  <rect x="0" y="0" width="400" height="300" fill="none" stroke="#333" stroke-width="8"/>
  
  <!-- Film sprocket holes -->
  <rect x="5" y="20" width="8" height="6" fill="#333"/>
  <rect x="5" y="40" width="8" height="6" fill="#333"/>
  <rect x="5" y="60" width="8" height="6" fill="#333"/>
  <rect x="5" y="80" width="8" height="6" fill="#333"/>
  <rect x="5" y="100" width="8" height="6" fill="#333"/>
  
  <rect x="387" y="20" width="8" height="6" fill="#333"/>
  <rect x="387" y="40" width="8" height="6" fill="#333"/>
  <rect x="387" y="60" width="8" height="6" fill="#333"/>
  <rect x="387" y="80" width="8" height="6" fill="#333"/>
  <rect x="387" y="100" width="8" height="6" fill="#333"/>
  
  <!-- Photo info -->
  <text x="20" y="280" font-family="Arial, sans-serif" font-size="12" fill="#333">Roll 001 - Photo 01</text>
  <text x="20" y="295" font-family="Arial, sans-serif" font-size="10" fill="#666">Kodak Portra 400</text>
</svg>